<?xml version="1.0" standalone="no"?><!DOCTYPE svg PUBLIC "-//W3C//DTD SVG 1.1//EN" "http://www.w3.org/Graphics/SVG/1.1/DTD/svg11.dtd"><svg t="1699353483294" class="icon" viewBox="0 0 1024 1024" version="1.1" xmlns="http://www.w3.org/2000/svg" p-id="1109" xmlns:xlink="http://www.w3.org/1999/xlink" width="128" height="128"><path d="M173.678188 0.015642A164.628968 164.628968 0 0 0 9.236921 164.456909c0 82.150246 61.331134 152.240736 142.668011 163.033514a31.283414 31.283414 0 1 0 8.227538-62.019369 101.89008 101.89008 0 1 1 115.420157-101.499038 31.283414 31.283414 0 0 0 31.283414 31.142639h0.140776a31.283414 31.283414 0 0 0 31.142639-31.42419C337.712771 73.437815 263.94648 0.015642 173.678188 0.015642zM850.401006 0a164.785385 164.785385 0 0 0-164.519475 163.690465 31.283414 31.283414 0 0 0 31.142638 31.408548h0.140776a31.283414 31.283414 0 0 0 31.283414-31.142639 101.874439 101.874439 0 1 1 115.420157 101.51468 31.283414 31.283414 0 1 0 8.227538 62.019369A164.472551 164.472551 0 0 0 850.401006 0z" fill="#ffffff" p-id="1110"></path><path d="M512.008314 764.316378c-38.6663 0-75.924846-15.876333-100.341551-42.920844-17.127669-18.957749-36.147985-52.149452-29.59411-102.562674a31.283414 31.283414 0 0 1 31.017505-27.247854H610.816978a31.283414 31.283414 0 0 1 31.001863 27.060153c6.647726 48.770843-10.949195 81.336877-26.872452 100.106926-23.665903 27.85788-59.798246 44.43809-99.121499 45.501726z m-66.993432-110.164543a55.825253 55.825253 0 0 0 13.092109 25.323923c13.123392 14.531146 34.08328 22.899459 56.012953 22.25815 21.288363-0.578743 41.13769-9.385024 53.181805-23.462561a54.918034 54.918034 0 0 0 11.856414-24.103871z" fill="#ffffff" p-id="1111"></path><path d="M511.992672 245.246326a356.959399 356.959399 0 1 1-139.351969 28.155073 355.69242 355.69242 0 0 1 139.351969-28.155073m0-62.566828c-232.310635 0-420.65243 188.341796-420.65243 420.65243S279.682038 1024 511.992672 1024s420.668072-188.341796 420.668072-420.668072-188.341796-420.65243-420.668072-420.65243z" fill="#ffffff" p-id="1112"></path></svg>