<?xml version="1.0" standalone="no"?><!DOCTYPE svg PUBLIC "-//W3C//DTD SVG 1.1//EN" "http://www.w3.org/Graphics/SVG/1.1/DTD/svg11.dtd"><svg t="1699353551495" class="icon" viewBox="0 0 1024 1024" version="1.1" xmlns="http://www.w3.org/2000/svg" p-id="3599" xmlns:xlink="http://www.w3.org/1999/xlink" width="128" height="128"><path d="M792.5972 141.108812c-9.9999-9.099909-23.699763-13.799862-36.699634-13.199869-13.599864 0.699993-26.09974 6.599934-35.199649 16.699834-9.099909 10.099899-13.799862 23.099769-13.099869 35.699643 0.699993 26.999731-1.399986 53.999461-6.299937 80.599196C661.098512 168.708536 586.199259 43.509786 465.600463 2.110199 459.500524 0.310217 453.100588-0.389776 446.700652 0.210218c-27.899722 2.399976-48.699514 27.09973-46.399537 53.399467 4.199958 96.999032-58.499416 209.797906-103.098971 277.197233-16.99983-40.899592-41.499586-78.499217-72.799274-110.898893l-2.599974-2.399976c-11.399886-9.799902-26.499736-13.99986-41.399587-11.499885-13.399866 2.199978-25.199748 9.499905-33.099669 20.599794-7.899921 11.099889-10.99989 24.499755-8.899911 37.399627 12.399876 81.399188-9.199908 121.898783-34.299658 168.898314-23.099769 43.199569-49.299508 92.299079-49.299508 171.998284C54.804563 847.801759 247.102644 1024 512 1024s457.195437-176.198241 457.195437-419.095817c0-264.297362-110.698895-404.095967-176.598237-463.795371zM512 949.90074c-221.997784 0-383.096177-145.098552-383.096177-344.896558 0-61.199389 18.799812-96.399038 40.599595-137.098632 19.699803-36.799633 41.199589-77.19923 45.799543-136.498638 15.099849 27.499726 25.599745 57.399427 30.999691 88.899113l13.599864 80.099201 51.499486-62.799374c6.599934-7.99992 148.598517-182.998174 162.098382-351.296493 133.998663 73.499266 192.898075 296.297043 193.598068 298.697018l25.499746 98.899013 43.799562-92.199079c23.399766-49.09951 37.999621-102.398978 43.199569-156.898434C833.396792 299.707229 894.996178 415.506073 894.996178 605.004182c0.099999 199.798006-160.998393 344.896558-382.996178 344.896558z" fill="#ffffff" p-id="3600"></path></svg>