<?xml version="1.0" standalone="no"?><!DOCTYPE svg PUBLIC "-//W3C//DTD SVG 1.1//EN" "http://www.w3.org/Graphics/SVG/1.1/DTD/svg11.dtd"><svg t="1699353535279" class="icon" viewBox="0 0 1024 1024" version="1.1" xmlns="http://www.w3.org/2000/svg" p-id="2556" xmlns:xlink="http://www.w3.org/1999/xlink" width="128" height="128"><path d="M901 906.91H123a27.59 27.59 0 0 1 0-55.18h778a27.59 27.59 0 1 1 0 55.18zM845.58 762.05H178.42a96.12 96.12 0 0 1-96-96V213.1a96.12 96.12 0 0 1 96-96h667.16a96.12 96.12 0 0 1 96 96V666a96.12 96.12 0 0 1-96 96.05zM178.42 172.27a40.87 40.87 0 0 0-40.82 40.83V666a40.86 40.86 0 0 0 40.82 40.82h667.16A40.86 40.86 0 0 0 886.4 666V213.1a40.87 40.87 0 0 0-40.82-40.83z" fill="#ffffff" p-id="2557"></path><path d="M324.67 646.6a118 118 0 1 1 118-118 118.16 118.16 0 0 1-118 118z m0-180.88a62.85 62.85 0 1 0 62.85 62.84 62.91 62.91 0 0 0-62.85-62.84zM724.46 526.71a93.83 93.83 0 1 1 93.82-93.83 93.93 93.93 0 0 1-93.82 93.83z m0-132.46a38.64 38.64 0 1 0 38.63 38.63 38.68 38.68 0 0 0-38.63-38.63zM438.18 378.16A82.13 82.13 0 1 1 520.31 296a82.22 82.22 0 0 1-82.13 82.16z m0-109.07a26.95 26.95 0 1 0 26.94 27 27 27 0 0 0-26.94-27z" fill="#ffffff" p-id="2558"></path><path d="M671.45 420.75a27.62 27.62 0 0 1-10.64-2.14L478 342.09a27.6 27.6 0 0 1 21.31-50.91l182.81 76.52a27.6 27.6 0 0 1-10.67 53.05zM413.93 541.78a27.59 27.59 0 0 1-5.33-54.66l252.16-49.93a27.59 27.59 0 0 1 10.72 54.13l-252.16 49.93a27.66 27.66 0 0 1-5.39 0.53z" fill="#ffffff" p-id="2559"></path></svg>