<?xml version="1.0" standalone="no"?><!DOCTYPE svg PUBLIC "-//W3C//DTD SVG 1.1//EN" "http://www.w3.org/Graphics/SVG/1.1/DTD/svg11.dtd"><svg t="1699356383028" class="icon" viewBox="0 0 1024 1024" version="1.1" xmlns="http://www.w3.org/2000/svg" p-id="5817" xmlns:xlink="http://www.w3.org/1999/xlink" width="128" height="128"><path d="M453.973333 164.096c23.722667-48.128 92.330667-48.128 116.053334 0l83.84 170.112 186.922666 27.904c52.736 7.850667 73.813333 72.533333 35.925334 109.952l-135.253334 133.546667 31.445334 187.946666c8.874667 52.778667-46.549333 92.842667-93.866667 67.925334L512 773.546667l-167.04 87.893333c-47.317333 24.917333-102.741333-15.146667-93.866667-67.925333l31.445334-187.904-135.253334-133.546667c-37.930667-37.461333-16.810667-102.144 35.925334-109.994667l186.88-27.904 83.882666-170.112z m58.026667 28.586667L413.141333 393.173333l-220.416 32.853334 159.146667 157.226666-36.992 221.013334L512 700.416l197.12 103.765333-36.992-221.013333 159.146667-157.141333-220.416-32.896L512 192.64z" fill="#2c2c2c" p-id="5818"></path></svg>