<?xml version="1.0" standalone="no"?><!DOCTYPE svg PUBLIC "-//W3C//DTD SVG 1.1//EN" "http://www.w3.org/Graphics/SVG/1.1/DTD/svg11.dtd"><svg t="1699353496008" class="icon" viewBox="0 0 1024 1024" version="1.1" xmlns="http://www.w3.org/2000/svg" p-id="1321" xmlns:xlink="http://www.w3.org/1999/xlink" width="128" height="128"><path d="M511.991744 66.048537a444.176409 444.176409 0 1 1-173.559042 35.005724A443.10312 443.10312 0 0 1 511.991744 66.048537m0-66.048537C229.221446 0 0 229.221446 0 511.991744s229.221446 511.991744 511.991744 511.991744 511.991744-229.221446 511.991744-511.991744S794.762041 0 511.991744 0z" fill="#ffffff" p-id="1322"></path><path d="M511.991744 444.902943c-123.675885 0-242.067887-53.763509-333.363477-151.399758a33.02592 33.02592 0 0 1 48.248456-45.111151c78.663807 84.129324 179.982262 130.44586 285.115021 130.44586s206.401677-46.333048 285.11502-130.44586a33.02592 33.02592 0 1 1 48.248457 45.111151c-91.29559 97.636249-209.687592 151.399758-333.363477 151.399758zM821.230993 792.400806a32.892171 32.892171 0 0 1-24.124229-10.468693c-78.663807-84.211884-179.982262-130.44586-285.11502-130.44586s-206.401677 46.333048-285.115021 130.44586a33.02592 33.02592 0 1 1-48.248456-45.11115c91.29559-97.619737 209.704104-151.399758 333.363477-151.399758s242.067887 53.713972 333.363477 151.399758a33.024268 33.024268 0 0 1-24.124228 55.579843z" fill="#ffffff" p-id="1323"></path></svg>