<?xml version="1.0" standalone="no"?><!DOCTYPE svg PUBLIC "-//W3C//DTD SVG 1.1//EN" "http://www.w3.org/Graphics/SVG/1.1/DTD/svg11.dtd"><svg t="1699353456666" class="icon" viewBox="0 0 1436 1024" version="1.1" xmlns="http://www.w3.org/2000/svg" p-id="893" xmlns:xlink="http://www.w3.org/1999/xlink" width="179.5" height="128"><path d="M1003.022301 72.626594c26.835526 0 77.020503 25.237741 137.300575 96.10314 62.041268 72.86263 118.871577 175.429537 160.087169 288.781492a1099.566627 1099.566627 0 0 1 51.183592 190.445085c10.02247 58.809384 13.690113 113.097763 10.893989 161.358135-2.523774 43.575956-10.421916 80.470266-22.841064 106.470586-6.028007 12.709654-16.068634 28.723818-29.649806 33.680583a33.117727 33.117727 0 0 1-11.420532 1.815665c-27.797829 0-69.213144-25.110645-110.755555-67.1796-51.528568-52.109581-100.950965-125.970827-142.929137-213.612968a72.626594 72.626594 0 0 0-65.509187-41.251905H456.743221a72.626594 72.626594 0 0 0-65.491031 41.251905c-41.978171 87.642142-91.418725 161.503388-142.947293 213.612968-41.596881 42.032641-83.012196 67.179599-110.755555 67.1796a33.117727 33.117727 0 0 1-11.420532-1.815665c-13.581173-4.956765-23.603643-21.043555-29.649807-33.680583-12.419148-26.000321-20.31729-62.822003-22.841063-106.470586-2.796124-48.260371 0.871519-102.54875 10.893989-161.358135a1099.566627 1099.566627 0 0 1 51.129121-190.445085c41.251905-113.351956 98.045901-215.900706 160.123483-288.690709 60.298229-70.810929 110.483206-96.10314 137.318732-96.10314a33.0451 33.0451 0 0 1 11.420531 1.815665c19.66365 7.153719 36.83984 39.309144 45.936321 85.989886a72.626594 72.626594 0 0 0 71.283001 58.682288h312.621173a72.626594 72.626594 0 0 0 71.283001-58.736757c9.078324-46.680743 26.27267-78.836167 45.936321-85.989887a33.117727 33.117727 0 0 1 11.420531-1.815665m0-72.626594a105.308561 105.308561 0 0 0-36.313296 6.245887c-47.207286 17.194346-78.291468 68.032962-92.381027 140.350892H561.743118c-14.089559-72.317931-45.137428-123.156546-92.381027-140.350892a105.308561 105.308561 0 0 0-36.313296-6.245887c-118.018215 0-273.820415 180.241049-365.693056 432.672932-101.677231 279.303722-86.51643 541.213375 33.825836 585.025368a105.308561 105.308561 0 0 0 36.313297 6.264043c99.861566 0 226.958105-129.20271 319.248349-322.008159h522.620967c92.36287 192.787293 219.368626 321.971846 319.230192 321.971846a105.308561 105.308561 0 0 0 36.313297-6.264044c120.342266-43.811993 135.48491-305.721646 33.825836-585.025368C1276.806402 180.222892 1120.986046-0.018157 1003.004144 0z" fill="#ffffff" p-id="894"></path><path d="M456.852161 570.772399a152.261653 152.261653 0 1 1 152.261653-152.261653 152.425063 152.425063 0 0 1-152.261653 152.261653z m0-231.878557a79.63506 79.63506 0 1 0 79.63506 79.616904 79.707686 79.707686 0 0 0-79.63506-79.616904zM1064.682279 454.824042H842.862506a36.313297 36.313297 0 0 1 0-72.626593h221.819773a36.313297 36.313297 0 1 1 0 72.626593z" fill="#ffffff" p-id="895"></path><path d="M953.799627 565.706694a36.313297 36.313297 0 0 1-36.313296-36.313297V307.628094a36.313297 36.313297 0 1 1 72.626593 0v221.765303a36.313297 36.313297 0 0 1-36.313297 36.313297z" fill="#ffffff" p-id="896"></path></svg>